<svg id="Ebene_1" data-name="Ebene 1" xmlns="http://www.w3.org/2000/svg" viewBox="0 0 833.97 321.48"><defs><style>.cls-1{fill:#e6e6e6;}.cls-2{fill:#1d1d1b;}.cls-3{fill:#f8d200;}.cls-4{fill:#e30613;}.cls-5{fill:#7d7b7b;}</style></defs><path class="cls-1" d="M603.93,4.08H446.84V161.17H603.93V4.08ZM470.4,27.64h110v110h-110Z"/><path class="cls-2" d="M593.07,140.45c-5-7.7-11.71-26.62-20.49-44.84-11.32-23.55-20.06-30-43.47-31.73-1-.08-2.08-.15-3.16-.21-6.67-.36-14.45-.43-23.72-.43H446.84v1.68h45.31c14,0,24.61.14,33.08,1.25,1.1.15,2.17.31,3.21.49,16.62,2.89,24.4,10.53,34.06,30.62,8.76,18.23,15.52,37.16,20.49,44.86s16.4,7.15,16.4,7.15h4.53v-2.21c-3.62-.73-8.17-2.47-10.85-6.63"/><path class="cls-3" d="M590.66,149.87c-22.43-5.88-23.59-36.73-43.85-45.42-16.08-6.89-35,16.13-45.36,24.77-14.92,12.44-35.13,19.61-54.61,21.4v6.52A117.38,117.38,0,0,0,488.68,142c15.94-9.38,29.67-32.93,50.26-31.11C551,112,558,127.29,563.07,136.21c4.8,8.45,11.83,16.33,20.85,20.27,5.73,2.5,13.17,2,20,1.54v-7a47.26,47.26,0,0,1-13.26-1.11"/><path class="cls-4" d="M538.43,4.08A410.57,410.57,0,0,1,526,63.67c-.09.32-.17.64-.27,1-.15.51-.31,1-.45,1.53-5.14,17.63-12,36-25.42,48.91-9.79,9.44-22.38,15.54-35.44,18.93a79.32,79.32,0,0,1-17.53,2.79v12.33c10.8-.29,21.91-3.38,31.7-7.68a73.56,73.56,0,0,0,25-17.86c6.42-7.12,10.81-15.68,14.48-24.44a223.5,223.5,0,0,0,10.43-32.49c.23-.93.44-1.85.67-2.78.46-2,.95-3.92,1.4-5.88,4-17.79,6.8-35.84,9.07-53.92Z"/><path class="cls-5" d="M814.57,252.06v-9.61h14.2v-5.79h-14.2V228.1h16.62v-6h-24V258h24.07v-5.95Zm-6.05,34.49H804V321h4.54V305.08h17.37V321h4.57V286.55h-4.57v14.81H808.52ZM786.4,258V228.1h11v-6H768.16v6H779V258Zm-16.86,35.61a19.7,19.7,0,0,0-1.71,8.45v3.32q0,7.33,3.68,11.71a12.12,12.12,0,0,0,9.78,4.38,13.21,13.21,0,0,0,9-3,12.67,12.67,0,0,0,4-8.44h-4.57q-.66,4.26-2.69,6a8.76,8.76,0,0,1-5.81,1.71,7.55,7.55,0,0,1-6.55-3.31q-2.36-3.31-2.35-8.93v-3.34c0-4,.83-7,2.48-9.17a8.11,8.11,0,0,1,6.82-3.22,7.8,7.8,0,0,1,5.53,1.85c1.32,1.24,2.17,3.23,2.57,6h4.57a12.85,12.85,0,0,0-3.86-8.48,12.47,12.47,0,0,0-8.81-3.07,13.42,13.42,0,0,0-7.28,2,12.83,12.83,0,0,0-4.87,5.59m-30.67-3.36h7a8.12,8.12,0,0,1,5.5,1.73,6.26,6.26,0,0,1,1.91,4.91,6,6,0,0,1-2,4.7,7.87,7.87,0,0,1-5.39,1.75h-7Zm6.84-3.71h-11.4V321h4.56V307.07H747L754.45,321h4.87v-.29l-8.09-14.62a10.4,10.4,0,0,0,4.84-3.58,9.26,9.26,0,0,0,1.74-5.61c0-3.37-1-6-3.14-7.71s-5.08-2.65-9-2.65m-7.08-64.44h-7.39V246a11.89,11.89,0,0,0,3.77,9.15q3.69,3.33,10,3.33t10.08-3.43a12.12,12.12,0,0,0,3.68-9.32V222.11h-7.42V246q-.11,6.56-6.34,6.56a6.49,6.49,0,0,1-4.67-1.62c-1.12-1.07-1.69-2.79-1.69-5.14Zm-34.08,86.16,5.84-16.11,5.87,16.11Zm3.85-21.72L695.24,321h4.69l3.24-9h14.44l3.29,9h4.66l-13.18-34.46Zm13.4-64.44H692.57v6h10.84V258h7.4V228.1h11Zm-99.22,64.44H600.93V321h21.89v-3.72H605.47V305.08h14.94v-3.72H605.47v-11.1h17.11Zm-120.28,0h-4.54V321h4.54Zm-144.15,3.71h7a8.12,8.12,0,0,1,5.5,1.73,6.26,6.26,0,0,1,1.91,4.91,6,6,0,0,1-2,4.7,7.86,7.86,0,0,1-5.38,1.75h-7Zm6.84-3.71h-11.4V321h4.56V307.07h8.1L373.73,321h4.87v-.29l-8.09-14.62a10.4,10.4,0,0,0,4.84-3.58,9.26,9.26,0,0,0,1.74-5.61c0-3.37-1-6-3.14-7.71s-5.08-2.65-9-2.65m-143.86,0H199.48V321h21.89v-3.72H204V305.08H219v-3.72H204v-11.1h17.11Zm-53,3.71h5.3a9.81,9.81,0,0,1,7.82,3.31q2.76,3.26,2.76,9.13v2q0,6-2.92,9.31a10.41,10.41,0,0,1-8.18,3.27h-4.78Zm5.18-3.71h-9.72V321h9.53a16.71,16.71,0,0,0,8.13-2,13.1,13.1,0,0,0,5.37-5.63,18.38,18.38,0,0,0,1.89-8.54v-2.2a18.43,18.43,0,0,0-1.91-8.43,13.45,13.45,0,0,0-5.34-5.66,15.69,15.69,0,0,0-8-2M50.64,290.26h16.8v-3.71H46.09V321h4.55V305.79H65.1v-3.72H50.64Zm47.65,15q-.08,6-2.49,9.2a8.76,8.76,0,0,1-13.69-.19q-2.49-3.41-2.49-9.34v-2.53c0-3.88.89-6.92,2.54-9.1A8,8,0,0,1,88.94,290a8.11,8.11,0,0,1,6.89,3.28c1.64,2.18,2.46,5.32,2.46,9.4Zm2.81,8.51a21.25,21.25,0,0,0,1.71-8.84v-2.18a21.35,21.35,0,0,0-1.71-8.84,12.87,12.87,0,0,0-4.86-5.8,13.37,13.37,0,0,0-7.3-2,12.81,12.81,0,0,0-12.12,7.86,21.1,21.1,0,0,0-1.72,8.78v2.49a20.43,20.43,0,0,0,1.78,8.58,13.67,13.67,0,0,0,19.4,5.71,12.82,12.82,0,0,0,4.82-5.76m23.47-10.38h-7V290.26h7a8.12,8.12,0,0,1,5.5,1.73,6.26,6.26,0,0,1,1.9,4.91,6,6,0,0,1-2,4.7,7.89,7.89,0,0,1-5.39,1.75M133.16,321H138v-.29l-8.1-14.62a10.35,10.35,0,0,0,4.84-3.58,9.26,9.26,0,0,0,1.74-5.61c0-3.37-1-6-3.13-7.71s-5.08-2.65-9-2.65H113V321h4.57V307.07h8.09Zm49-63h7.42v-35.9h-9.72l-9.17,26-9.22-26h-9.66V258h7.39v-9.82l-.74-16.91L168.08,258h5.08l9.69-26.75-.74,16.93Zm38.15-13.39h-9l4.47-13.44ZM224.75,258h7.86l-13.44-35.9h-6.85L199,258h7.86l2.47-7.4h13ZM249,314.66l-11.27-28.11h-5.87V321h4.55V307.59L236,293.17,247.25,321h3.47L262,293.1l-.43,14.49V321h4.55V286.55h-5.9ZM269.88,258l-10.73-18.1,10.45-17.8h-8.5l-6.73,12.38-6.73-12.38h-8.51l10.46,17.8L238.86,258h8.61l6.9-12.58,6.9,12.58Zm27.95,35.25c1.64,2.18,2.46,5.32,2.46,9.4v2.56q-.06,6-2.48,9.2a8.76,8.76,0,0,1-13.69-.19q-2.5-3.41-2.5-9.34v-2.53c.05-3.88.9-6.92,2.54-9.1a8.76,8.76,0,0,1,13.67,0m.42-5.19a13.39,13.39,0,0,0-7.3-2,12.78,12.78,0,0,0-12.12,7.86,20.94,20.94,0,0,0-1.73,8.78v2.49a20.43,20.43,0,0,0,1.79,8.58,13.66,13.66,0,0,0,19.39,5.71,12.9,12.9,0,0,0,4.83-5.76,21.26,21.26,0,0,0,1.7-8.84v-2.18a21.35,21.35,0,0,0-1.7-8.84,13,13,0,0,0-4.86-5.8m17.29-54a5,5,0,0,1-1.54,4,6.51,6.51,0,0,1-4.48,1.38h-6.6V228.1h6.78a5.83,5.83,0,0,1,4.29,1.68,5.92,5.92,0,0,1,1.55,4.26m7.47,0a11.76,11.76,0,0,0-1.65-6.2,11,11,0,0,0-4.72-4.2,16.18,16.18,0,0,0-7.12-1.48h-14V258h7.4V245.36h6.48q6.39,0,10-3.05A10.32,10.32,0,0,0,323,234m14.17,54.84a13.09,13.09,0,0,0-8.69-2.76q-6.58,0-10.21,4.29t-3.63,12.07v3a19.39,19.39,0,0,0,1.83,8.45,13.09,13.09,0,0,0,5,5.62,14.15,14.15,0,0,0,7.48,2,19.69,19.69,0,0,0,7.3-1.24,10.54,10.54,0,0,0,4.89-3.75V303.85H328.7v3.71h8v7.72a6.93,6.93,0,0,1-3.17,1.92,15.78,15.78,0,0,1-4.47.56,8.61,8.61,0,0,1-7.18-3.42c-1.76-2.28-2.65-5.36-2.65-9.23V302.3q0-6.09,2.38-9.3a8,8,0,0,1,6.92-3.21q6.87,0,8.14,6.86h4.55a12,12,0,0,0-4-7.82M333.65,258h23.1v-5.95h-15.7V222.11h-7.4Zm51.64-13.39h-9l4.47-13.44ZM389.77,258h7.87l-13.44-35.9h-6.85L364,258h7.86l2.47-7.4h13ZM406,308.27H394.25l5.85-16.11Zm9.3,12.74-13.18-34.46h-4L385,321h4.69l3.24-9h14.44l3.29,9Zm13.08-63h7.39v-35.9h-7.37v23.67L414,222.11h-7.4V258H414V234.39Zm15.92,39.1a6.29,6.29,0,0,1-1.94,5,8.12,8.12,0,0,1-5.58,1.72h-8.17V290.26H437a7.66,7.66,0,0,1,5.32,1.92,6.52,6.52,0,0,1,1.94,4.93m4.55,0a9.81,9.81,0,0,0-3.21-7.65q-3.21-2.88-8.86-2.88H424V321h4.54V307.52h8.12c3.9,0,6.89-.91,9-2.71s3.14-4.39,3.14-7.73m19.78-62.79H476A13.59,13.59,0,0,0,471.6,225q-3.8-3.33-10-3.33a14.56,14.56,0,0,0-7.88,2.11,13.67,13.67,0,0,0-5.22,6.05,21.61,21.61,0,0,0-1.82,9.12v2.19q0,8.11,4,12.76t10.86,4.65q6.3,0,10.17-3.33a12.71,12.71,0,0,0,4.27-9.12h-7.39a7.05,7.05,0,0,1-1.94,4.84,7.25,7.25,0,0,1-5.11,1.57,6.16,6.16,0,0,1-5.56-2.69q-1.77-2.69-1.77-8.5v-2.72q.06-5.56,1.89-8.22a6.3,6.3,0,0,1,5.54-2.65,7.13,7.13,0,0,1,5.06,1.57,7.47,7.47,0,0,1,1.94,5M480,321h4.57V286.55H480v14.81H462.58V286.55H458V321h4.55V305.08H480Zm35.67-63-13.11-19.95,12.75-15.95h-9.1L497,233.92l-3.25,4.46V222.11h-7.4V258h7.4V247.75l3.84-4.14,9.22,14.4Zm2.5,47.51v-3.34c0-4,.82-7,2.47-9.17a8.13,8.13,0,0,1,6.83-3.22,7.8,7.8,0,0,1,5.53,1.85c1.31,1.24,2.17,3.23,2.56,6h4.57a12.8,12.8,0,0,0-3.86-8.48,12.46,12.46,0,0,0-8.8-3.07,13.48,13.48,0,0,0-7.29,2,12.75,12.75,0,0,0-4.86,5.59,19.56,19.56,0,0,0-1.72,8.45v3.32q0,7.33,3.68,11.71a12.14,12.14,0,0,0,9.79,4.38,13.25,13.25,0,0,0,9-3,12.7,12.7,0,0,0,4-8.44h-4.57q-.66,4.26-2.68,6a8.77,8.77,0,0,1-5.81,1.71,7.57,7.57,0,0,1-6.56-3.31q-2.34-3.31-2.34-8.93M540.8,258h7.4v-35.9h-7.4Zm41.6,0h7.4v-35.9h-7.37v23.67L568,222.11h-7.4V258H568V234.39Zm-4.63,45.34h-7V290.26h7a8.12,8.12,0,0,1,5.5,1.73,6.26,6.26,0,0,1,1.91,4.91,6,6,0,0,1-2,4.7,7.87,7.87,0,0,1-5.39,1.75m8.6,17.66h4.87v-.29l-8.09-14.62a10.4,10.4,0,0,0,4.84-3.58,9.26,9.26,0,0,0,1.74-5.61c0-3.37-1.05-6-3.14-7.71s-5.08-2.65-9-2.65h-11.4V321h4.56V307.07h8.1Zm22.45-89.33a3.6,3.6,0,0,1,1.51-3,6.76,6.76,0,0,1,4.21-1.15,6.41,6.41,0,0,1,4.37,1.37,4.85,4.85,0,0,1,1.55,3.83h7.4a10.32,10.32,0,0,0-1.67-5.77,11,11,0,0,0-4.67-3.93,16.12,16.12,0,0,0-6.85-1.39,17.77,17.77,0,0,0-6.89,1.28,10.62,10.62,0,0,0-4.71,3.56,8.62,8.62,0,0,0-1.64,5.19q0,5.59,6.11,8.9a36.78,36.78,0,0,0,6.09,2.45,19.33,19.33,0,0,1,5.33,2.37,3.82,3.82,0,0,1,1.48,3.22,3.49,3.49,0,0,1-1.48,3,6.89,6.89,0,0,1-4.12,1.08q-7.1,0-7.1-5.94h-7.42a10.58,10.58,0,0,0,1.79,6.11,11.92,11.92,0,0,0,5.18,4.15,18.38,18.38,0,0,0,7.55,1.52q6,0,9.49-2.65a8.64,8.64,0,0,0,3.53-7.31,9.39,9.39,0,0,0-2.89-7q-2.88-2.82-9.19-4.71a19.71,19.71,0,0,1-5.19-2.22,3.46,3.46,0,0,1-1.77-2.93M644,286.07a12.91,12.91,0,0,0-8.46,2.67,8.32,8.32,0,0,0-3.25,6.73,7.89,7.89,0,0,0,2.66,6q2.65,2.44,8.51,4.13a20.45,20.45,0,0,1,6.43,2.73,4.66,4.66,0,0,1,1.78,3.92,4.76,4.76,0,0,1-1.92,4,9,9,0,0,1-5.51,1.46,9.72,9.72,0,0,1-6.17-1.81,5.91,5.91,0,0,1-2.3-4.93h-4.57a9.05,9.05,0,0,0,1.67,5.37,11.14,11.14,0,0,0,4.74,3.73,16.15,16.15,0,0,0,6.63,1.36A13.93,13.93,0,0,0,653,319a8.05,8.05,0,0,0,3.27-6.71,8.7,8.7,0,0,0-1.17-4.57,10.19,10.19,0,0,0-3.6-3.39,28.48,28.48,0,0,0-6.72-2.67,17.52,17.52,0,0,1-6.09-2.67,4.44,4.44,0,0,1-1.78-3.57,4.93,4.93,0,0,1,1.88-4.11,8.25,8.25,0,0,1,5.24-1.48,8.09,8.09,0,0,1,5.61,1.79,6.3,6.3,0,0,1,2,4.93h4.57a9.67,9.67,0,0,0-1.53-5.28,10.34,10.34,0,0,0-4.31-3.78,14,14,0,0,0-6.33-1.38m-5.36-124.9h2.2V4.08h-2.2Zm15.8,66.93h11v-6H636.2v6h10.85V258h7.4Zm34.11,58.45H666.91V321H688.8v-3.72H671.45V305.08h14.93v-3.72H671.45v-11.1h17.11ZM675.69,258h7.39v-35.9h-7.39Zm28-141.1-2.28,9.34a.37.37,0,0,0,.11.3l0,0a7.63,7.63,0,0,0,.72.86.4.4,0,0,0,.29.12l.11,0a.45.45,0,0,0,.34-.31l2.19-9.21a.26.26,0,0,0,0-.27v0l0,0-.34-.45-.4-.51a.4.4,0,0,0-.39-.17.47.47,0,0,0-.36.37m-9.59-1.13v.4l0,0c.11.14.19.28.28.42s.19.3.3.45a.39.39,0,0,0,.37.23.37.37,0,0,0,.38-.24l4.17-7.9a.3.3,0,0,0,.08-.21.36.36,0,0,0-.08-.23,3.41,3.41,0,0,0-.32-.6c-.06-.12-.13-.23-.18-.31a.39.39,0,0,0-.38-.32.41.41,0,0,0-.39.3Zm-5.55-12.42a.35.35,0,0,0-.11.42l.13.39a4,4,0,0,1,.17.55l0,0a.6.6,0,0,0,.45.27h0a.4.4,0,0,0,.34-.18l5.85-6.45a.5.5,0,0,0,.12-.38l0-.25c-.06-.29-.12-.58-.18-.82a.44.44,0,0,0-.32-.35.53.53,0,0,0-.49.15Zm-3.18-12.49a4.46,4.46,0,0,1,.14.93v0a.56.56,0,0,0,.32.35l.14,0a.49.49,0,0,0,.25-.08l7.26-4.76,0,0a.7.7,0,0,0,.17-.38,4.45,4.45,0,0,0,0-.53,4,4,0,0,1,0-.5.43.43,0,0,0-.23-.36.48.48,0,0,0-.49,0l-7.31,4.82c-.14,0-.22.24-.22.45m8.07-16.43-8.12,2.86a.44.44,0,0,0-.32.35,3.74,3.74,0,0,1-.07.92v0a.55.55,0,0,0,.23.43.42.42,0,0,0,.26.08.27.27,0,0,0,.13,0l8.08-2.79a.43.43,0,0,0,.29-.41,3.91,3.91,0,0,1,0-.46,4.07,4.07,0,0,0,0-.47.42.42,0,0,0-.11-.41.44.44,0,0,0-.44-.11M696,63.51l-8.35.81a.44.44,0,0,0-.34.21l0,0,0,0v0c-.07.35-.14.63-.21.93a.39.39,0,0,0,.1.43.39.39,0,0,0,.3.13.25.25,0,0,0,.12,0l8.25-.8a.45.45,0,0,0,.42-.32,5.22,5.22,0,0,1,.29-.87.42.42,0,0,0-.06-.39.54.54,0,0,0-.44-.23Zm4.64-10.33-8.22-1.1a.41.41,0,0,0-.41.22l-.45.88a.36.36,0,0,0,0,.29.61.61,0,0,0,.37.33l8.18,1.11a.38.38,0,0,0,.42-.22,5.94,5.94,0,0,1,.43-.79.45.45,0,0,0,.06-.39.54.54,0,0,0-.38-.33m6.56-9.3L699.55,41a.46.46,0,0,0-.54.12l-.11.15a4.44,4.44,0,0,1-.46.56l0,0a.57.57,0,0,0,.24.69l7.59,2.92a.3.3,0,0,0,.15.05,1,1,0,0,0,.35-.12l0,0,0,0a5.54,5.54,0,0,1,.57-.71l0,0a.51.51,0,0,0-.21-.7m8.11-7.11a.51.51,0,0,0,0-.72l-6.65-4.53a.46.46,0,0,0-.52,0l0,0a4.43,4.43,0,0,1-.66.58.55.55,0,0,0-.15.35.49.49,0,0,0,.17.37L714,37.36a.37.37,0,0,0,.26.12h0a.4.4,0,0,0,.26-.11,3.65,3.65,0,0,0,.75-.6m9-6.06a.39.39,0,0,0,.25-.22.47.47,0,0,0,0-.4l-5.28-6a.37.37,0,0,0-.26-.17.42.42,0,0,0-.3.06l-.38.21a4,4,0,0,1-.41.22l0,0a.51.51,0,0,0-.07.7L722.92,31h0a.5.5,0,0,0,.35.16.54.54,0,0,0,.26-.07l.36-.21.34-.22M734,26.53a.46.46,0,0,0,.22-.27.42.42,0,0,0,0-.35l-3.52-7a.42.42,0,0,0-.25-.24.35.35,0,0,0-.27,0h0a2.57,2.57,0,0,0-.79.29.44.44,0,0,0-.28.62l3.52,7a.43.43,0,0,0,.37.26.42.42,0,0,0,.15,0l.56-.14ZM744.2,24a.38.38,0,0,0,0-.37L742.79,16a.39.39,0,0,0-.2-.31.39.39,0,0,0-.33,0,3.13,3.13,0,0,0-.43,0l-.42,0-.06,0a.56.56,0,0,0-.29.3.28.28,0,0,0,0,.22l1.46,7.66a.37.37,0,0,0,.16.3.39.39,0,0,0,.23.07l.15,0a2.87,2.87,0,0,1,.44-.08,2.25,2.25,0,0,0,.4-.06.37.37,0,0,0,.3-.16m10.25-.85.73-7.78a.45.45,0,0,0-.42-.43h0l-.89-.07a.47.47,0,0,0-.5.41L752.64,23a.48.48,0,0,0,.5.5H754a.46.46,0,0,0,.43-.42m10.36,1.41,3-7.39a.44.44,0,0,0-.31-.61l-.48-.11-.51-.11a.49.49,0,0,0-.32.18l0,0L765,19.43c-.7,1.74-1.5,3.72-1.83,4.5a.53.53,0,0,0,.28.62h.06a3.31,3.31,0,0,1,.85.15h0a.75.75,0,0,0,.46-.18M773.33,27l5-6.37a.43.43,0,0,0,.09-.4.47.47,0,0,0-.3-.34,3.52,3.52,0,0,1-.86-.36h-.06a.62.62,0,0,0-.47.2l-5,6.38a.48.48,0,0,0-.08.44.42.42,0,0,0,.3.28l.41.14a2.47,2.47,0,0,0,.46.15.32.32,0,0,0,.16,0,.51.51,0,0,0,.35-.15m-23.87,78.55c.09-.51-.07-.94-.38-1.06s-.56.18-.68.41-.26.45-.52.39-.4-.22-.47-.6a3,3,0,0,0-.84-1.71,3.82,3.82,0,0,0-1-.67,6.06,6.06,0,0,1-2.32-2c-1.28-2.13-.77-6,.53-7.62a1.5,1.5,0,0,1,1.72-.61c1.05.37,1.3,2.64.65,6.08-.16,1,.8,1.66,1.48,1.86.5.14.87.07,1-.18.2-.55-.17-.78-.49-1a1.36,1.36,0,0,1-.61-.64,3.74,3.74,0,0,1,.26-1.68c.51-1.83,1.28-4.61-1.74-5.58a2.69,2.69,0,0,0-2.68.41c-1.47,1.14-2.28,3.8-2,6.61a6.18,6.18,0,0,0,4,5.54c.72.27.88.87,1,1.51.21.81.42,1.65,1.86,1.65a1.22,1.22,0,0,0,1.16-1.1m33.25-23.87s0-.18.92-.7l.59-.37a14.83,14.83,0,0,1,4.91-2.25.53.53,0,0,1,.53.4,6.49,6.49,0,0,1-.08,2.94v0c-.07.33-1.73.56-6.23.11h-.05c-.16,0-.55-.06-.59-.14m-1.49-.79a13.16,13.16,0,0,1-2.59,1,1.61,1.61,0,0,0-.31.1.36.36,0,0,0-.29.4.32.32,0,0,0,.3.3h0a79.86,79.86,0,0,0,10.13.88c1.75,0,2.64-.17,2.7-.39a1.23,1.23,0,0,0-.22-.93c-.13-.2-.2-.32-.15-.46a8.93,8.93,0,0,0,.15-4.26.15.15,0,0,1,0-.11c0-.08.25-.13.43-.17.38-.08.9-.2.9-.77a3.16,3.16,0,0,0-.75-1.86.48.48,0,0,0-.44-.11c-.19,0-.19.27-.2.52,0,.5,0,1.19-1.09,1.24-2.4.15-4.53,1.77-6.24,3.06a15.09,15.09,0,0,1-2.32,1.57M793,73a2.68,2.68,0,0,0-2.62-2.23h-.1c-2.73.11-5.77,2.49-7.78,4.06a13.63,13.63,0,0,1-1.94,1.37c-1,.43-1.06.75-1,.94s.23.22.47.22a1.79,1.79,0,0,0,.55-.1,14.44,14.44,0,0,0,2.79-1.74,23,23,0,0,1,5.49-3.17c1.78-.68,2.33,0,2.83.58.28.34.56.68,1,.6.07,0,.3-.08.27-.53m9,22a.43.43,0,0,0-.46-.4A17.23,17.23,0,0,0,797,96.53c-.57.42-2,1.17-2.62.79-.31-.17-.44-.6-.39-1.26s.2-1.35.35-2.17a15.17,15.17,0,0,0,.31-2,1,1,0,0,0-.12-.52.42.42,0,0,0-.35-.2.69.69,0,0,0-.61.71,26,26,0,0,1-.49,3.62L793,96a2.3,2.3,0,0,0,.81,2.24,1.83,1.83,0,0,0,1.08.35,2.43,2.43,0,0,0,1.17-.32l1.23-.69a15.15,15.15,0,0,1,4.29-1.93A.64.64,0,0,0,802,95m3.78.66A13.46,13.46,0,0,1,801.07,98a9.32,9.32,0,0,0-3.16,1.46c-1.07.89-1.2,2.26-.4,4.19l.19.43c.16.33.26.55.21.68s-.51.31-1.13.47a5.91,5.91,0,0,0-2.74,2c-1,1.11-2,2.17-4,1.8-.46-.1-.71-.08-.81.06a.26.26,0,0,0,0,.29,1.29,1.29,0,0,0,.93.57h0c2.14.23,3-.4,3.62-1.06.2-.18.42-.41.65-.65a6.93,6.93,0,0,1,2.08-1.67,2.52,2.52,0,0,1,1.92-.06.53.53,0,0,1,.25.45c0,.47-1.28,1.44-2,1.79l-.22.11.21.12.19.11c.55.32,1.56.89,1.59,1.55,0,.32-.22.65-.69,1-1.3.88-3-.16-3.58-.5L794,111c-.35-.18-1-.2-1.15,0a.29.29,0,0,0,0,.39,4.59,4.59,0,0,0,2.64,1.18c.37.08.87.18.9.28a.12.12,0,0,1,0,.06,7.24,7.24,0,0,0-1.3,5.91,11,11,0,0,1,0,3.75c-.84,3.54-5.64,5.64-9.86,6.42-13.78,2.47-27.22-9.9-34.05-17.56.55-1.27.67-2.94.22-3.24-.1-.06-.29-.12-.55.17a3.59,3.59,0,0,0-.5.84,2,2,0,0,1-1.56,1.39c-2.19.58-3.51-2.18-4.4-4a7.21,7.21,0,0,0-.82-1.46c-3.94-3.79-5.11-9-3-13.27a5,5,0,0,1,4.06-3.09l.33,0a5.16,5.16,0,0,1,4.17,2.25,9.76,9.76,0,0,1,1.7,4.42,3,3,0,0,0,.89,2.07,3.63,3.63,0,0,0,4,.16,2.22,2.22,0,0,1,.33-.14c.41-.12.67.21,1.12.81A5.21,5.21,0,0,0,762,100.8h.28c4-.17,4.65-4.68,5-7.37a5.26,5.26,0,0,1,.39-1.69c2.88-2.81,4.23-5.8,4-8.87a8.74,8.74,0,0,0-2-5s-.06-.17,0-.51a5.06,5.06,0,0,1,1-2.13,10.29,10.29,0,0,0,7.39-6c.78,0,6.69-.49,8.82-4.9.19-.36.49-.34,1.15-.27,1.09.12,2.92.33,5.7-1.88a.66.66,0,0,1,.55-.15.67.67,0,0,1,.42.38c.5,1.22,1,2.29,1.34,3.23,1.82,4.31,2.57,6.1,2.39,9-.12,2.14,4.78,12.57,6.63,16.5l.64,1.37c.6,1.42.61,2.63,0,3.14M788.38,61.84c0-.22.06-.47.08-.7,0-.55.08-.92.31-1a18.28,18.28,0,0,0,2.1-.56c1-.3,2.22-.67,3.71-1.06h.08a.36.36,0,0,1,.27.12.35.35,0,0,1,0,.37h0c-.6,1.74-4.24,3.21-5.85,3.21a1.58,1.58,0,0,1-.41-.05c-.32-.08-.33-.24-.3-.38m-9.17,1.42s0-.28,1-.82c2-1.06,5.25-1.93,5.53-1.68.42,1.17-1.4,4.48-3.58,5.25s-3.2.65-3.34.51a.06.06,0,0,1,0-.06v0a10.53,10.53,0,0,0,.35-3.16m-10,11a3.23,3.23,0,0,1-1.22,1.7h0a2.64,2.64,0,0,1-3.18-.3c-.17-.16-.32-.39-.23-.53a33.48,33.48,0,0,1,8.83-8.54A11,11,0,0,1,776,65.17h.08c.09,0,.12.27.14.48a7.41,7.41,0,0,1-2,5.67,5.28,5.28,0,0,1-3.74,1.83c-.26,0-.47.06-.66.11-.35.08-.52.48-.72,1M757.45,86.57c-.28-2,4-7,4.87-7.87a.93.93,0,0,1,.65-.28,1,1,0,0,1,.37.08,2.4,2.4,0,0,1,1.25,2c.21,2.74-1.3,4.24-3,5.45-2.12,1.59-2.48,3.57-2.08,4.14a.63.63,0,0,0,.58.18,1.32,1.32,0,0,0,1.12-.78,10.09,10.09,0,0,1,3.21-3.32,5.78,5.78,0,0,0,2-2,5.67,5.67,0,0,0,.27-3.73,4.9,4.9,0,0,1-.11-.65.6.6,0,0,1,.16-.51,1.24,1.24,0,0,1,.93-.23c.63.13,1,1,1.36,2,1.74,4.58-1.41,7.66-3.3,9.5a9.67,9.67,0,0,0-1,1.09,3.3,3.3,0,0,0-.06,1.42c.08,1.63.23,4.34-1.43,5.35a2.64,2.64,0,0,1-3.12,0,6.59,6.59,0,0,1-1.69-2l-.22-.33a2.91,2.91,0,0,1-.42-2.39c.23-1.1.38-2.57-.36-7.23m-5.13,7.09a24.43,24.43,0,0,1,3.13-4.94,0,0,0,0,1,0,0h0a.37.37,0,0,1,.27.26c.33,2.36.14,5.38-1,6.46a1.61,1.61,0,0,1-1.57.36h0a.85.85,0,0,1-.51-.39,2.61,2.61,0,0,1-.33-1.72m43.75-39.11c-.1.44-.62,1.26-3,1.78-.18,0-17.45,3.57-26.09,12.8a117,117,0,0,0-12.5,16.69c-1.79,2.76-3.33,5.13-3.83,5.13,0,0,0,0-.1-.09a4.82,4.82,0,0,0-2-2c-.37-.24-.59-.39-.53-.5,14-24.27,35.8-42.82,40.71-45.91.59-.36,1.68-.88,2.32-.24a1.42,1.42,0,0,1,.53,1c0,.57-.51,1.1-1,1.61s-1.28,1.3-.85,2.07a25.2,25.2,0,0,0,5.83,6.56,1.14,1.14,0,0,1,.5,1.13M783.8,37.64a10.14,10.14,0,0,1-5.06,4.77C775,44,772.35,44.28,772,44.18c0-.53,3.22-4.28,6.13-5.55h0a12.86,12.86,0,0,1,5.72-1.25s0,.06,0,.26m-7.1-7.29A56.63,56.63,0,0,0,752.48,25,57.58,57.58,0,0,0,695,82.49a55.78,55.78,0,0,0,13.82,37.33,18.11,18.11,0,0,0-1.44,7.31,20,20,0,0,0,2.27,9.38,71.81,71.81,0,0,1-19.12-23.93,68.84,68.84,0,0,1,62-99.23,69.81,69.81,0,0,1,32,7.9.19.19,0,0,1,.11.15.16.16,0,0,1,0,.14,77.66,77.66,0,0,0-7.87,8.81M697.5,82.49a55,55,0,0,1,55-55,54.45,54.45,0,0,1,22.62,4.85,13.5,13.5,0,0,0-2.86,1.89,49.11,49.11,0,0,0-19.76-3.93,52.23,52.23,0,0,0-52.17,52.18A49.68,49.68,0,0,0,711.78,115c-.25.41-.57.87-.93,1.39l-.75,1.1a53.59,53.59,0,0,1-12.6-35m15.38,30.73a10.29,10.29,0,0,1-3.29-6.25v-.44a14.8,14.8,0,0,1,1.78-6.93h0a1.76,1.76,0,0,1,.74.4,8.28,8.28,0,0,1,3.2,6.24A10.7,10.7,0,0,1,713,113Zm2.1.85a8.48,8.48,0,0,0,1.34-2.51c.57-1.43,1.1-2.77,2.87-3.59h0a13.61,13.61,0,0,1,6.94-1c0,.09-.1.23-.19.44-.49,1.18-1.79,4.31-4.45,5.64a9.12,9.12,0,0,1-6.51,1m52.79-67.16a15,15,0,0,1,6.28-.83,11.15,11.15,0,0,1-5.43,5,14.59,14.59,0,0,1-7.09,1.21,16,16,0,0,1,6.24-5.36M771,37.49C773.05,35,776.5,33,777.12,33h.06c.28.33-.66,4.09-3,6.46a26,26,0,0,1-6.51,4.65A18.64,18.64,0,0,1,771,37.49m-54.41,65.25a11.76,11.76,0,0,0-1-2.51,6.85,6.85,0,0,1-1-3.52,13.83,13.83,0,0,1,2.32-7.24c1.31.71,2.85,2.72,3,6.14a9.12,9.12,0,0,1-3.3,7.13M729.93,98a10.23,10.23,0,0,1-4.49,6.18c-3.39,1.8-7.13,1.91-7.52,1.58-.06-.43,1.2-5.07,4.64-6.62A15.27,15.27,0,0,1,729.93,98m-7.62-5.36A13.34,13.34,0,0,1,720.73,87c-.14-4.5,1.56-6.28,2.47-7.23l.06-.07A5.26,5.26,0,0,0,724.33,81a5,5,0,0,1,1.77,3.44,11.48,11.48,0,0,1-3.79,8.13m12.58-3.7c.15.47-1.51,4.19-4.53,5.63a10.89,10.89,0,0,1-4.61,1.12,13.12,13.12,0,0,0-3.35.56c.4-1.29,2.4-4.89,5.36-6.2a15.56,15.56,0,0,1,6-1.2,4.85,4.85,0,0,1,1.16.09m-2.51-12.25,0,.16a11.82,11.82,0,0,1-2.91,4.9c-.35.4-.69.78-1,1.16,0-.08-.08-.17-.11-.26a8.91,8.91,0,0,1-1-4,11.45,11.45,0,0,1,3.93-8.51c.46.12,1.44,2.36,1.44,4.41a7.75,7.75,0,0,1-.32,2.15m7.69,3.24a10.27,10.27,0,0,1-4.81,5.7,16.33,16.33,0,0,1-7.54,1.63c.34-.7,2.82-4.94,5.62-6.3a14.19,14.19,0,0,1,6.73-1m-.83-10.58a9.59,9.59,0,0,1-2.51,3.53,18.11,18.11,0,0,0-1.31,1.37c-.32-.36-1.14-3.18-.11-6.64a8.82,8.82,0,0,1,3.35-4.76,7.94,7.94,0,0,0,.68-.58,10.45,10.45,0,0,1-.1,7.08m8.08,1.62a9.79,9.79,0,0,1-4.94,5.57,20.35,20.35,0,0,1-7.79,1.42c.3-.75,3.62-4.89,6.36-6.23a11.74,11.74,0,0,1,6.37-.76M747.23,61a6.6,6.6,0,0,1-1.92,2.07,11.58,11.58,0,0,0-2.85,3c-.23-.52-.48-3.25.69-6.83A10.41,10.41,0,0,1,747.58,54s.09,0,.21.43a9.81,9.81,0,0,1-.56,6.56m8.13,1.87c.09.64-1.68,3.42-5.2,4.74a17.76,17.76,0,0,1-7.3,1.12c.21-.68,2.77-4.79,5.64-5.86a10.69,10.69,0,0,1,6.08-.19c.32.06.57.11.75.13,0,0,0,0,0,.06m.45-9.65A14.3,14.3,0,0,1,753,56.51a16.54,16.54,0,0,0-2.65,2.87c-.07-1.06,0-5,.86-6.89a13.07,13.07,0,0,1,4.7-5.78c.32.38,1.21,4.46-.1,6.53m3.29-1.39a11,11,0,0,1,1.7-7.63,16.65,16.65,0,0,1,4.79-4.62,5.75,5.75,0,0,0,.09,1.14c.24,1.66.64,4.45-2,6.6h0a18.21,18.21,0,0,0-4.42,4.93,1.25,1.25,0,0,1-.16-.43m6.25,2.45a10.26,10.26,0,0,1-6,4.82,19.55,19.55,0,0,1-7.18.81c.44-.69,3.25-4.45,6.16-5.47a14.22,14.22,0,0,1,7-.16M713.23,98.63c-.88-.95-1.84-1.67-2.1-1.52a17.18,17.18,0,0,0-2.69,6.59,48.78,48.78,0,0,1-5.59-21.22,45.92,45.92,0,0,1,13.07-34,50.81,50.81,0,0,1,36.44-15.27h.27a43.59,43.59,0,0,1,17.15,3.44,22.54,22.54,0,0,0-2.53,4.47c0-.5-.09-1-.15-1.39a7,7,0,0,1-.12-1.57.23.23,0,0,0-.15-.24l-.14,0c-.89,0-4.39,1.66-7.51,6.62a14.91,14.91,0,0,0-1.48,3.4,7.24,7.24,0,0,0-.73-3.08l-.09,0,0,0a12.47,12.47,0,0,0-6.67,6.82,14.32,14.32,0,0,0-.66,2.11c-.17-.87-.45-2-.76-2a12.36,12.36,0,0,0-6.8,7,17.39,17.39,0,0,0-.78,2.88c-.31-1.13-.75-2-1.08-2.1a.23.23,0,0,0-.24.07,11.24,11.24,0,0,1-1.66,1.54,11.44,11.44,0,0,0-4.3,6,10.73,10.73,0,0,0-.5,2.7c-.56-1.11-1.27-2-1.61-2h0c-.49.08-4.86,4.2-5.54,8.54a11.19,11.19,0,0,0,0,3.87c-.21-.29-.42-.56-.63-.83a7.78,7.78,0,0,1-1.4-2.33l0-.15L724,77c-.53.29-4.46,3.69-4.62,8.4a19.57,19.57,0,0,0,.4,4,6.13,6.13,0,0,0-2.74-2.5.24.24,0,0,0-.17,0c-.38.25-3.13,3.2-3.79,8.6a9.42,9.42,0,0,0,.17,3.11m3,17a15.5,15.5,0,0,0,5.91-1.47c3-1.39,5.08-4,6.21-7.79a1.64,1.64,0,0,1,.09-.27l0-.09,0-.07a5.81,5.81,0,0,0-2.5-.39l.1,0a12.41,12.41,0,0,0,6.2-8.62c0-.1,0-.22-.12-.26l0,0H732a16.34,16.34,0,0,0-2.22-.15h0l.78-.3c4.62-1.86,6.22-6.47,6.5-7.38.12-.4.25-.9.15-1a6.85,6.85,0,0,0-2.24-.32l.85-.37.1,0A12.56,12.56,0,0,0,742.3,79c0-.12,0-.26-.06-.32a5,5,0,0,0-1.63-.29,21.39,21.39,0,0,0,2.54-.88,12.12,12.12,0,0,0,6.75-7.33c0-.19,0-.3,0-.36l0,0a8.82,8.82,0,0,0-1.61-.35,19.94,19.94,0,0,0,2.63-.8c4.83-1.65,7.12-6.15,7-6.77a.18.18,0,0,0-.15-.16h0a10.77,10.77,0,0,1-1.26-.24c-.24-.06-.48-.12-.75-.17a22.71,22.71,0,0,0,4.23-.94c5.34-1.82,7.54-5,7.72-6.8,0-.19-.71-.45-1.31-.63a15.68,15.68,0,0,0,3.06-.85,14.5,14.5,0,0,0,7.53-7.57l.78-.3c.71-.27,1.44-.54,2.17-.86l0,0c.53-.26,1-.47,1.44-.74a9.34,9.34,0,0,0,1.18.82l.34.23c.22.14.42.28.43.35s0,.06-.11.16c-19.24,16.35-32.83,37.15-36.51,43.11-.16.16-.36.19-.85.11h-.46a6.89,6.89,0,0,0-5.71,3c-2.09,2.91-2.42,7.11-.87,11-.4,1.33-3.23,4-3.47,4.14s-.54.64-.37,1c.09.19.34.26.69.21,1.31-.07,2.93-2,3.9-3.14l.2-.24.17.18c.37.38,1,1,1,1.45a.35.35,0,0,1-.13.27,51.5,51.5,0,0,1-10.81,8.11c-.34.16-.5.32-.49.49a.28.28,0,0,0,.19.25,1.34,1.34,0,0,0,.46.06c1.54,0,6-1.42,12.14-7a.16.16,0,0,1,.1,0c.23.06.55.73.83,1.32a9,9,0,0,0,.83,1.48c-.89,3,0,7.57.84,11.58.54,2.7,1,5,.78,6.27a2,2,0,0,1-2.07,1.94c-2.26,0-4,.06-5.42.07-4.05,0-5.42,0-8.76,1-1.2.37-1.59,1-1.46,1.44s.66.66,1.46.43l.41-.1c1.64-.43,3.88-1,12.67-.48a5.12,5.12,0,0,0,3.92-1,4.68,4.68,0,0,0,1.28-3.49,52.56,52.56,0,0,0-1-7.2c-.63-3.42-1.34-7.28-1-8.29a4.66,4.66,0,0,0,2.44.93l.08,0a25.82,25.82,0,0,0,1.33,5.74c1.44,4.9,3.24,11,1.62,15-.81,2.08-4.45,2.09-11.81,1.31-2.32-.23-4.34-.31-6.09-.31a49.66,49.66,0,0,0-7.39.55c-1.65.24-2.24.3-2.31-.13h0a4.36,4.36,0,0,1,.39-2.19,11.92,11.92,0,0,0,.79-4.16c-.07-3.83-4.25-8.85-8.41-13.29m7.33,22.7a5.1,5.1,0,0,1,3.49-.4.31.31,0,0,1,.18.22,10.38,10.38,0,0,1-.11,1.17,15.59,15.59,0,0,0,.32,6.72,1.12,1.12,0,0,1-.67.15h-.19a3.81,3.81,0,0,1-3.34-2.36c-.52-2.09-.26-4.74.32-5.5m6.46-.81a8.44,8.44,0,0,1,2.38-.33,2.21,2.21,0,0,1,1,.15c.11.06.1.12.1.14-.06.69-.16,1.38-.26,2.1-.42,2.9-.85,5.89,1.23,9,.11.16.13.29.06.4s-.76.41-1.59.27a3.86,3.86,0,0,1-3.14-3c-.68-2.95-.92-7.71.26-8.74m6.63-.12c.22-.5,4.18-.28,5.11,0,.11,0,.17.52.23.94a7.38,7.38,0,0,0,5,6.68,3,3,0,0,1-.39,2.19c-.73,1.41-2.75,3.59-8.17,2.25a4.65,4.65,0,0,1-1.81-2.3,11.82,11.82,0,0,1,0-9.76m15.34,3a2.57,2.57,0,0,1-1.51,2.35h0a3.84,3.84,0,0,1-4.63-1.26c-.94-1.23-1.24-2.89-.86-3.45.06-.11.24-.15.48-.15a9.06,9.06,0,0,1,.92.08,5.86,5.86,0,0,0,4.13-.55.58.58,0,0,1,.67-.05c.58.35,1,1.74.8,3m-3.31,7.33a7.4,7.4,0,0,0,.45-2.46c1.68-.25,4.45-1.08,5-3.91a8.35,8.35,0,0,0-1.13-5.54,3.07,3.07,0,0,1-.35-.8c2.11-4,.89-8.46-.8-14.58-.51-1.82-1.08-3.88-1.6-6.1-.08-.51,0-.82.2-.89s.25.06.3.12c12.67,13.67,20.57,15.94,23.95,16.9a.32.32,0,0,1,.2.16,1.08,1.08,0,0,1-.07.77l-.25.88c-1.81,6.2-2.63,9,.26,16.21v.05c.21.53.44,1.13.31,1.28s-.16.07-.32,0l-2-.37a40.55,40.55,0,0,0-8.85-.87c-3.33,0-8,.24-15.25.87h0c-.19,0-.25-.07-.27-.1-.19-.23,0-.93.24-1.66m-27-11.11c-.07.5-.18,1-.3,1.51s-.25,1.11-.33,1.69a1.72,1.72,0,0,1-1.35-.36,2.05,2.05,0,0,1,.94-3.07,1.4,1.4,0,0,1,.34-.05,1,1,0,0,1,.7.28m85.51-44.15c-1-2.66-6.65-15.73-7-16.29a6.79,6.79,0,0,1-.56-3.6,7.34,7.34,0,0,0-.08-1.93,51.43,51.43,0,0,0-2.73-6.9c-.23-.52-.45-1-.66-1.48s.05-.57.42-.93c.67-.67,1.68-1.67,0-5l.12-.08c.45-.28,1.37-.86,1.41-1.82,0-.77-.54-1.61-1.69-2.48A21,21,0,0,1,792,46.87c-.2-.4-.19-.68,0-.86a4.23,4.23,0,0,0,1.56-3.41,3.49,3.49,0,0,0-1.73-2.67c-1.63-1-3.53,0-5.34,1.17l-.1.06c-.52.33-.76.48-1.24.3a11.84,11.84,0,0,1-1-.7l-.2-.14c2-1.91,2.54-3.94,2.26-4.38a.35.35,0,0,0-.17-.13c-.73-.33-3.93-.77-7.77.78a.67.67,0,0,0-.12-.06h0c1.54-2.79.91-4.8.63-5.29a64.22,64.22,0,0,1,9.46-10.24l.07-.07a.64.64,0,0,0,.23-.46.7.7,0,0,0-.31-.48l0,0a3.17,3.17,0,0,1-.48-.22l-.39-.21A71.69,71.69,0,0,0,680.89,82.49c0,22.87,11.42,44.81,30.54,58.67a13.37,13.37,0,0,0,2.15,1.27.82.82,0,0,0,1-.19l.3-.38a1.3,1.3,0,0,0,.24-.73c0-.34-.25-.62-.63-1.06a13.07,13.07,0,0,1-1-1.29,21.49,21.49,0,0,1-3.71-11.65,17.17,17.17,0,0,1,3.4-10.35l1,1c3.15,3.12,7.9,7.83,7.77,12.17a6.79,6.79,0,0,1-2.58,5.19c-1.2,1.16-2.23,2.16-1.67,4.31a3,3,0,0,0,1.82,2.14,1.67,1.67,0,0,1,1.19,1.43c.56,3.29,4.71,5.5,7,5.5a2.77,2.77,0,0,0,.42,0h.11c.38,0,.78.31,1.69,1.29,1.42,1.42,4.82,1.22,6.41.92a4.77,4.77,0,0,1,2,.29,10.53,10.53,0,0,0,4.25.44c1.89-.19,3-.35,4-.48a23.16,23.16,0,0,1,2.31-.25h.91c4.3,0,17.4-.09,27,1.39a4.64,4.64,0,0,0,.71.06,1.43,1.43,0,0,0,1.25-.48c.19-.28.31-.79-.21-1.68-3.7-6.47-4.32-12-2.15-19.15l1,.09c3.8.34,9,.82,15.69-3.2a8.84,8.84,0,0,0,4-7.52,14,14,0,0,0-.24-1.82,8,8,0,0,1-.13-3.34c.49-1.77.81-2,1.29-2.25l.27-.17c1.1-.78,1.6-1.59,1.47-2.4a2.12,2.12,0,0,0-1-1.38,2.68,2.68,0,0,0,1-1.49,2.49,2.49,0,0,0-.38-2.19,7.47,7.47,0,0,1-1-4.34,1.47,1.47,0,0,1,.72-1.16,23.58,23.58,0,0,1,3.27-1.26c1-.32,2-.65,3-1.09a3.62,3.62,0,0,0,1.9-4.86m24.15-10a79,79,0,1,1-78.95-79,79,79,0,0,1,78.95,79m2.54,0A81.49,81.49,0,1,0,752.48,164,81.59,81.59,0,0,0,834,82.49"/></svg>